<svg width="116" height="20" viewBox="0 0 116 20" fill="none" xmlns="http://www.w3.org/2000/svg">
<path d="M10 0L13.1858 5.61513L19.5106 6.90983L15.1547 11.6749L15.8779 18.0902L10 15.42L4.12215 18.0902L4.84527 11.6749L0.489435 6.90983L6.8142 5.61513L10 0Z" fill="#F79E1B"/>
<path d="M34 0L37.1858 5.61513L43.5106 6.90983L39.1547 11.6749L39.8779 18.0902L34 15.42L28.1221 18.0902L28.8453 11.6749L24.4894 6.90983L30.8142 5.61513L34 0Z" fill="#F79E1B"/>
<path d="M58 0L61.1858 5.61513L67.5106 6.90983L63.1547 11.6749L63.8779 18.0902L58 15.42L52.1221 18.0902L52.8453 11.6749L48.4894 6.90983L54.8142 5.61513L58 0Z" fill="#F79E1B"/>
<path d="M82 0L85.1858 5.61513L91.5106 6.90983L87.1547 11.6749L87.8779 18.0902L82 15.42L76.1221 18.0902L76.8453 11.6749L72.4894 6.90983L78.8142 5.61513L82 0Z" fill="#F79E1B"/>
<path d="M106 0L109.186 5.61513L115.511 6.90983L111.155 11.6749L111.878 18.0902L106 15.42L100.122 18.0902L100.845 11.6749L96.4894 6.90983L102.814 5.61513L106 0Z" fill="#F79E1B"/>
</svg>
